<?xml version="1.0" standalone="no"?>
<!DOCTYPE svg PUBLIC "-//W3C//DTD SVG 20010904//EN"
 "http://www.w3.org/TR/2001/REC-SVG-20010904/DTD/svg10.dtd">
<svg version="1.0" xmlns="http://www.w3.org/2000/svg"
 width="5000.000000pt" height="5000.000000pt" viewBox="0 0 5000.000000 5000.000000"
 preserveAspectRatio="xMidYMid meet">

<g transform="translate(0.000000,5000.000000) scale(0.100000,-0.100000)"
fill="#000000" stroke="none">
<path d="M36023 42316 c-72 -18 -168 -67 -229 -118 -146 -122 -196 -236 -244
-558 -12 -80 -27 -173 -35 -206 -26 -113 -94 -276 -185 -441 -114 -205 -175
-327 -205 -408 -37 -98 -63 -246 -70 -395 -13 -280 -30 -404 -115 -810 -106
-509 -122 -638 -135 -1150 -5 -216 0 -256 73 -540 27 -107 53 -227 57 -265 14
-150 -33 -333 -127 -487 -118 -195 -166 -317 -218 -553 -17 -77 -42 -176 -55
-220 -23 -80 -79 -341 -90 -425 -21 -148 -69 -359 -92 -400 -43 -75 -112 -168
-221 -298 -175 -207 -202 -251 -267 -426 -100 -272 -210 -388 -453 -476 -153
-56 -257 -73 -417 -67 -162 7 -227 22 -340 80 -188 98 -297 204 -511 499 -209
288 -351 427 -529 515 -68 34 -220 85 -408 138 -265 74 -361 114 -577 246
-307 187 -361 219 -495 291 -77 41 -210 108 -295 148 -85 40 -205 97 -267 126
-149 70 -404 212 -530 295 -181 120 -295 211 -519 414 -120 109 -210 182 -374
305 -69 51 -153 117 -187 147 -123 107 -193 252 -178 370 10 79 80 210 181
338 115 145 258 363 285 434 13 34 23 90 26 142 5 78 2 100 -37 250 -36 137
-43 180 -44 264 -1 93 1 105 32 169 24 52 52 88 106 140 101 98 162 131 340
186 171 52 254 93 276 136 9 18 17 74 20 144 3 63 11 125 18 137 7 13 53 80
103 150 171 241 246 390 256 512 8 95 -14 156 -76 214 -77 72 -176 112 -349
141 -262 43 -385 31 -957 -99 -276 -62 -402 -86 -553 -106 -82 -10 -387 -13
-462 -4 -365 45 -559 113 -920 321 -253 145 -302 162 -560 188 -291 30 -319
42 -577 242 -43 34 -108 77 -143 95 -63 33 -69 34 -175 34 -143 -1 -205 -23
-286 -104 -87 -87 -102 -137 -104 -337 -1 -154 -3 -164 -29 -217 -49 -101
-148 -168 -303 -207 -138 -35 -298 -47 -648 -49 -455 -2 -485 -5 -705 -72
-438 -132 -807 -332 -1016 -551 -106 -110 -163 -216 -188 -348 -28 -147 -17
-268 42 -466 47 -157 50 -200 16 -274 -36 -80 -90 -127 -220 -190 -129 -64
-193 -124 -301 -285 -59 -88 -115 -155 -211 -252 -146 -146 -186 -200 -203
-277 -22 -101 19 -209 171 -451 125 -199 184 -324 184 -390 1 -100 -59 -132
-229 -121 -204 13 -284 32 -417 102 -279 148 -319 160 -513 149 -77 -5 -196
-9 -265 -9 -121 -1 -127 0 -200 33 -190 85 -381 248 -637 546 -161 188 -226
246 -326 294 -120 57 -209 76 -352 75 -131 0 -141 -3 -410 -97 -72 -25 -208
-61 -305 -81 -232 -48 -408 -105 -509 -166 -44 -26 -139 -93 -211 -150 -164
-128 -254 -180 -394 -226 -289 -94 -404 -187 -568 -454 -199 -325 -242 -366
-571 -541 -67 -35 -142 -85 -175 -115 -95 -85 -152 -217 -152 -349 0 -141 31
-235 140 -431 76 -138 98 -225 82 -329 -6 -40 -16 -84 -22 -99 -10 -28 -11
-28 -93 -25 -103 5 -171 36 -305 142 -207 164 -411 243 -539 208 -101 -27
-182 -198 -190 -401 -9 -199 23 -272 226 -525 69 -86 137 -182 158 -224 33
-65 37 -82 38 -150 0 -65 -4 -85 -31 -141 -58 -120 -149 -196 -250 -208 -37
-4 -49 0 -91 31 -97 71 -230 263 -347 502 -40 83 -97 200 -126 260 -80 167
-178 255 -283 255 -77 0 -150 -70 -285 -275 -127 -194 -149 -221 -327 -405
-183 -191 -233 -275 -276 -473 -29 -131 -23 -306 16 -427 38 -120 81 -206 114
-229 15 -11 54 -30 87 -42 120 -44 140 -76 131 -199 -10 -127 -35 -164 -214
-322 -122 -107 -184 -188 -311 -410 -111 -191 -347 -678 -366 -752 -23 -93
-53 -140 -149 -238 -99 -101 -173 -157 -472 -363 -126 -87 -259 -179 -295
-203 -94 -65 -252 -137 -350 -160 -47 -11 -157 -26 -244 -32 -189 -13 -220
-22 -400 -122 -196 -109 -210 -113 -401 -110 -170 2 -236 -8 -317 -49 -25 -12
-123 -101 -238 -214 -107 -106 -217 -207 -245 -224 -84 -53 -201 -92 -355
-118 -80 -13 -162 -29 -183 -35 -54 -16 -113 -85 -182 -212 -75 -136 -133
-202 -222 -249 -120 -62 -189 -78 -368 -86 -162 -6 -219 -3 -470 24 -254 28
-379 24 -502 -15 -71 -23 -318 -142 -421 -203 -133 -79 -210 -155 -372 -370
-226 -299 -291 -379 -410 -497 -119 -119 -199 -178 -395 -291 -151 -88 -185
-125 -270 -294 -114 -225 -161 -311 -265 -475 -54 -85 -116 -188 -139 -227
-78 -136 -92 -102 -102 252 -7 267 -10 296 -50 407 -24 65 -46 78 -132 78
-176 0 -270 -129 -292 -400 -8 -105 -18 -169 -50 -335 -33 -165 -42 -316 -25
-415 7 -41 43 -156 80 -255 96 -255 119 -335 132 -460 16 -166 -4 -253 -121
-512 -69 -153 -91 -247 -91 -398 0 -203 56 -527 130 -746 72 -216 168 -379
342 -581 87 -100 139 -151 363 -353 228 -206 357 -424 359 -610 1 -89 -15
-123 -74 -153 -84 -42 -213 -30 -557 52 -231 55 -296 66 -398 66 -91 0 -153
-22 -180 -64 -50 -76 0 -268 109 -419 63 -88 260 -277 566 -542 428 -372 534
-489 653 -723 61 -119 89 -194 173 -457 98 -307 182 -450 459 -775 266 -312
397 -498 509 -720 147 -290 201 -507 251 -1005 35 -348 54 -421 207 -780 50
-115 112 -265 139 -333 105 -263 181 -383 395 -622 207 -232 286 -343 384
-539 63 -126 102 -224 145 -366 48 -159 58 -278 48 -560 -13 -372 -11 -444 21
-665 18 -119 13 -306 -9 -378 -24 -78 -67 -119 -192 -182 -174 -88 -243 -175
-243 -306 0 -23 12 -86 26 -140 15 -55 37 -138 50 -186 50 -189 95 -234 272
-273 59 -13 141 -31 183 -39 135 -29 260 -103 444 -262 124 -107 223 -169 314
-198 95 -30 134 -34 351 -41 96 -4 247 -10 335 -15 445 -27 703 1 965 103 58
23 247 112 420 198 501 250 620 338 1100 820 231 232 403 370 560 449 158 80
448 154 730 187 167 19 649 24 1025 9 662 -25 1067 1 1417 90 347 87 618 275
799 552 70 107 90 168 95 292 13 329 19 356 94 431 52 52 155 105 270 139 117
34 355 118 459 161 106 44 136 62 425 247 363 233 626 370 795 413 121 32 277
43 426 32 186 -14 446 -14 546 1 107 17 371 105 571 192 372 162 440 189 718
293 74 27 187 73 250 101 415 186 531 230 692 261 115 22 176 27 523 39 181 6
292 15 365 29 58 11 170 29 250 40 80 12 285 47 455 77 301 55 314 56 440 51
129 -6 246 -28 336 -63 59 -23 186 -105 344 -223 214 -160 271 -194 410 -244
168 -60 243 -69 585 -72 264 -1 326 -5 385 -19 81 -21 199 -76 302 -140 40
-25 112 -62 160 -82 196 -80 237 -108 398 -264 610 -592 863 -924 1169 -1529
168 -332 178 -366 201 -642 25 -307 67 -421 210 -564 140 -140 277 -186 373
-123 33 22 50 46 84 115 49 102 122 186 177 204 115 37 190 103 215 190 9 29
16 61 16 71 0 31 49 118 110 198 31 41 100 141 153 221 112 172 193 262 337
373 213 165 388 368 494 576 29 58 88 197 131 310 85 225 127 323 169 388 31
49 107 102 147 102 35 0 82 -39 115 -96 77 -131 97 -560 39 -839 -28 -134
-125 -297 -375 -630 -231 -308 -262 -390 -265 -705 -2 -216 -10 -261 -70 -379
-50 -101 -110 -174 -268 -326 -119 -115 -147 -148 -158 -183 -31 -106 64 -149
310 -139 342 14 470 104 651 459 53 104 62 130 80 235 25 145 34 175 72 236
30 47 98 97 132 97 53 0 113 -66 154 -170 71 -180 121 -564 92 -705 -16 -78
-62 -176 -161 -346 -121 -207 -151 -308 -109 -376 29 -49 72 -66 176 -71 81
-4 108 0 265 39 144 36 190 44 269 44 85 0 102 -3 155 -29 85 -41 202 -163
293 -307 41 -62 114 -177 164 -254 49 -77 107 -174 128 -215 72 -143 112 -312
125 -525 10 -162 33 -322 65 -448 84 -333 293 -762 479 -985 145 -174 351
-297 647 -387 219 -66 373 -88 699 -100 283 -10 455 -35 568 -80 120 -49 209
-120 482 -385 240 -233 363 -294 595 -295 106 0 136 4 199 24 149 49 286 163
514 426 319 370 434 455 593 442 155 -12 269 -115 482 -436 183 -275 246 -351
341 -413 184 -120 454 -208 641 -208 157 0 243 47 453 247 333 318 626 543
867 667 102 53 267 110 360 125 109 18 279 13 493 -15 179 -23 225 -26 402
-21 149 4 225 11 298 27 124 26 494 159 558 201 143 91 193 207 303 700 52
232 63 292 112 618 78 522 164 783 396 1215 193 358 263 515 364 821 264 792
301 866 787 1530 410 561 472 627 902 960 221 170 418 364 541 530 49 66 181
255 292 420 112 165 239 351 282 414 81 118 166 278 199 374 26 74 46 178 76
391 47 327 83 445 240 781 158 336 192 433 240 670 75 371 113 480 278 805
205 403 256 551 278 805 26 301 -29 504 -220 812 -140 228 -176 447 -145 893
39 560 48 1305 20 1570 -20 183 -30 238 -67 378 -57 216 -148 430 -337 787
-370 701 -535 914 -952 1230 -214 162 -320 259 -399 365 -156 209 -247 496
-276 870 -21 276 -24 306 -42 375 -39 156 -95 209 -304 290 -121 47 -284 136
-459 250 -122 79 -176 107 -280 145 -44 16 -96 38 -117 49 -137 70 -170 231
-122 596 40 308 15 467 -111 707 -33 62 -98 190 -145 283 -93 187 -126 294
-166 532 -41 248 -91 365 -203 471 -81 77 -173 128 -352 197 -235 91 -280 111
-353 158 -102 67 -174 142 -261 272 -110 166 -187 260 -297 366 -172 165 -290
232 -583 334 -91 31 -187 68 -214 82 -193 98 -358 422 -440 863 -103 556 -138
832 -166 1300 -35 587 -88 737 -396 1135 -58 75 -129 195 -153 260 -11 28 -28
98 -40 155 -11 58 -32 166 -47 240 -14 74 -48 198 -76 275 -39 111 -50 158
-55 227 -7 99 0 125 88 324 61 139 73 194 67 310 -4 79 -9 99 -36 145 -48 83
-133 185 -226 268 -143 129 -238 244 -375 456 -43 66 -98 143 -123 170 -122
133 -358 205 -469 143 -60 -33 -110 -125 -134 -245 -6 -28 -10 -32 -48 -36
-92 -10 -204 0 -251 22 -99 48 -182 175 -244 371 -58 183 -66 258 -77 739 -13
564 -67 785 -314 1275 -120 238 -168 362 -217 553 -31 123 -47 212 -125 713
-35 225 -66 352 -107 442 -60 130 -163 233 -265 263 -60 18 -162 18 -234 1z"/>
</g>
</svg>
