<?xml version="1.0" standalone="no"?>
<!DOCTYPE svg PUBLIC "-//W3C//DTD SVG 20010904//EN"
 "http://www.w3.org/TR/2001/REC-SVG-20010904/DTD/svg10.dtd">
<svg version="1.0" xmlns="http://www.w3.org/2000/svg"
 width="256.000000pt" height="256.000000pt" viewBox="0 0 256.000000 256.000000"
 preserveAspectRatio="xMidYMid meet">

<g transform="translate(0.000000,256.000000) scale(0.100000,-0.100000)"
fill="#000000" stroke="none">
<path d="M758 1983 c-12 -13 -18 -56 -24 -163 -11 -179 -10 -187 23 -193 15
-3 124 -6 243 -6 192 -2 218 0 231 15 16 19 36 293 25 337 l-6 27 -239 0
c-214 0 -239 -2 -253 -17z"/>
<path d="M1801 1662 c-44 -9 -46 -17 -60 -237 -7 -93 -14 -203 -18 -242 l-6
-73 -777 0 -777 0 -22 -24 c-19 -21 -24 -42 -33 -140 -13 -149 -8 -160 83
-169 34 -4 83 -7 109 -7 l47 0 16 58 c35 126 151 220 273 222 138 1 245 -93
261 -230 l6 -50 431 0 432 0 17 56 c33 107 104 180 203 210 161 48 314 -49
331 -211 l6 -56 31 6 c59 12 67 17 77 43 14 37 41 398 33 445 -4 25 -22 58
-53 95 -84 101 -253 273 -285 290 -23 12 -63 16 -161 18 -71 1 -145 -1 -164
-4z m304 -98 c23 -15 215 -219 215 -228 0 -3 -112 -6 -250 -6 l-250 0 0 48 c0
26 3 84 7 130 l6 83 126 -7 c76 -4 134 -12 146 -20z"/>
<path d="M426 1533 c-10 -34 -28 -304 -22 -328 l6 -25 244 0 c197 0 246 3 255
14 13 16 37 315 28 340 -6 14 -39 16 -256 16 -229 0 -250 -1 -255 -17z"/>
<path d="M1021 1541 c-20 -13 -39 -324 -21 -346 11 -13 48 -15 251 -15 239 0
239 0 249 23 12 28 32 310 24 331 -5 14 -36 16 -248 16 -132 0 -247 -4 -255
-9z"/>
<path d="M550 979 c-93 -42 -143 -116 -144 -214 -3 -197 228 -282 373 -137 50
50 71 101 71 171 0 147 -160 244 -300 180z m133 -110 c45 -21 63 -102 31 -147
-68 -97 -211 -42 -190 72 13 68 93 105 159 75z"/>
<path d="M1975 981 c-96 -43 -147 -120 -147 -220 0 -69 16 -105 71 -154 67
-61 155 -70 242 -26 43 21 96 80 115 125 21 49 18 138 -6 184 -48 94 -176 136
-275 91z m149 -126 c20 -19 26 -33 26 -67 0 -50 -19 -82 -60 -103 -46 -24 -78
-19 -116 19 -38 38 -43 70 -19 116 21 41 53 60 101 60 30 0 48 -7 68 -25z"/>
</g>
</svg>
