<svg xmlns="http://www.w3.org/2000/svg" viewBox="0 0 24 24" fill="#E4405F">
  <path d="M12 0C8.686 0 8.212.011 7.01.057c-1.202.051-2.025.217-2.707.467-.687.255-1.258.615-1.815 1.172-.558.556-.917 1.128-1.172 1.815-.25.682-.416 1.505-.467 2.707C.011 8.212 0 8.686 0 12c0 3.314.011 3.788.057 4.99.051 1.202.217 2.025.467 2.707.255.687.615 1.258 1.172 1.815.556.558 1.128.917 1.815 1.172.682.25 1.505.416 2.707.467C8.212 23.989 8.686 24 12 24c3.314 0 3.788-.011 4.99-.057 1.202-.051 2.025-.217 2.707-.467.687-.255 1.258-.615 1.815-1.172.558-.556.917-1.128 1.172-1.815.25-.682.416-1.505.467-2.707.046-1.202.057-1.676.057-4.99 0-3.314-.011-3.788-.057-4.99-.051-1.202-.217-2.025-.467-2.707-.255-.687-.615-1.258-1.172-1.815-.556-.558-1.128-.917-1.815-1.172-.682-.25-1.505-.416-2.707-.467C15.788.011 15.314 0 12 0zm0 1.5c3.818 0 4.268.01 5.738.057 1.017.043 1.61.203 2.075.342.525.192.9.42 1.3.82.4.4.628.775.82 1.3.14.465.3 1.058.342 2.075.047 1.47.057 1.92.057 5.738s-.01 4.268-.057 5.738c-.042 1.017-.202 1.61-.342 2.075-.192.525-.42.9-.82 1.3-.4.4-.775.628-1.3.82-.465.14-1.058.3-2.075.342-1.47.047-1.92.057-5.738.057s-4.268-.01-5.738-.057c-1.017-.042-1.61-.202-2.075-.342-.525-.192-.9-.42-1.3-.82-.4-.4-.628-.775-.82-1.3-.14-.465-.3-1.058-.342-2.075-.047-1.47-.057-1.92-.057-5.738s.01-4.268.057-5.738c.042-1.017.202-1.61.342-2.075.192-.525.42-.9.82-1.3.4-.4.775-.628 1.3-.82.465-.14 1.058-.3 2.075-.342 1.47-.047 1.92-.057 5.738-.057zM12 5.813a6.187 6.187 0 1 0 0 12.375 6.187 6.187 0 0 0 0-12.375zm0 2.25a3.937 3.937 0 1 1 0 7.875 3.937 3.937 0 0 1 0-7.875zM18.094 6c-.42 0-.75.33-.75.75s.33.75.75.75c.42 0 .75-.33.75-.75s-.33-.75-.75-.75zM12 7.688c-2.208 0-4 1.792-4 4 0 1.71 1.352 3.68 2.942 4.916a7.205 7.205 0 0 0 3.117.692 7.205 7.205 0 0 0 3.117-.692C18.648 15.368 20 13.398 20 11.688c0-2.208-1.792-4-4-4zm0 1.5a2.5 2.5 0 1 1 0 5 2.5 2.5 0 0 1 0-5z"/>
</svg>
