<svg xmlns="http://www.w3.org/2000/svg" viewBox="0 0 24 24" fill="#1DA1F2">
  <path d="M23.958 4.575c-.875.388-1.813.65-2.813.775 1-.613 1.75-1.588 2.113-2.75-.925.55-1.95.95-3.05 1.175-.875-.925-2.125-1.5-3.513-1.5-2.65 0-4.788 2.15-4.788 4.788 0 .375 0 .75.05 1.125-3.988-.2-7.513-2.05-9.875-4.825-.413.713-.65 1.537-.65 2.412 0 1.663.85 3.137 2.138 3.988-.775-.05-1.513-.238-2.175-.475v.05c0 2.325 1.662 4.275 3.85 4.713-.412.113-.85.175-1.3.175-.313 0-.625-.038-.938-.113.638 1.913 2.488 3.3 4.675 3.35-1.713 1.362-3.875 2.163-6.213 2.163-.412 0-.825-.025-1.25-.075 2.212 1.412 4.825 2.225 7.65 2.225 9.15 0 14.162-7.575 14.162-14.162 0-.213 0-.425-.013-.637.975-.688 1.825-1.55 2.488-2.55z"/>
</svg>
